<?xml version="1.0" encoding="utf-8"?>
<!-- Generator: Adobe Illustrator 25.2.1, SVG Export Plug-In . SVG Version: 6.00 Build 0)  -->
<svg version="1.1" id="Layer_1" xmlns="http://www.w3.org/2000/svg" xmlns:xlink="http://www.w3.org/1999/xlink" x="0px" y="0px"
	 viewBox="0 0 30 31" style="enable-background:new 0 0 30 31;" xml:space="preserve">
<style type="text/css">
	.st0{fill:url(#SVGID_1_);}
	.st1{fill:#FFFFFF;}
</style>
<linearGradient id="SVGID_1_" gradientUnits="userSpaceOnUse" x1="25.6722" y1="4.7861" x2="4.9944" y2="25.4639">
	<stop  offset="0" style="stop-color:#006EF8"/>
	<stop  offset="0.7752" style="stop-color:#212CB1"/>
	<stop  offset="1" style="stop-color:#2B189C"/>
</linearGradient>
<circle class="st0" cx="15.33" cy="15.12" r="14.62"/>
<path class="st1" d="M16.15,17.75c0,0.45-0.09,0.84-0.27,1.17c-0.18,0.34-0.42,0.62-0.73,0.85c-0.31,0.23-0.67,0.4-1.08,0.52
	c-0.41,0.12-0.85,0.18-1.31,0.18H7.66V9.93h5.64c0.37,0,0.7,0.08,0.99,0.24c0.3,0.16,0.55,0.36,0.76,0.62
	c0.21,0.25,0.37,0.54,0.48,0.86c0.11,0.32,0.17,0.65,0.17,0.97c0,0.51-0.13,1-0.39,1.45c-0.26,0.45-0.63,0.78-1.13,1
	c0.6,0.18,1.08,0.5,1.43,0.96C15.97,16.48,16.15,17.06,16.15,17.75z M9.71,11.68v2.66h2.73c0.35,0,0.64-0.12,0.88-0.36
	c0.24-0.24,0.36-0.56,0.36-0.98c0-0.41-0.11-0.73-0.33-0.96c-0.22-0.24-0.5-0.36-0.82-0.36H9.71z M14.08,17.37
	c0-0.19-0.03-0.37-0.1-0.54c-0.06-0.17-0.15-0.32-0.26-0.45c-0.11-0.13-0.24-0.23-0.39-0.3c-0.15-0.07-0.31-0.11-0.49-0.11H9.71
	v2.77h3.04c0.19,0,0.36-0.03,0.53-0.1c0.16-0.07,0.3-0.17,0.42-0.29c0.12-0.12,0.21-0.27,0.28-0.44
	C14.05,17.73,14.08,17.55,14.08,17.37z"/>
<path class="st1" d="M20.58,20.47c-0.6,0-1.15-0.1-1.64-0.31c-0.97-0.41-1.65-1.1-2.05-2.08c-0.19-0.47-0.28-0.96-0.28-1.48
	c0-0.54,0.09-1.04,0.27-1.52c0.39-0.99,1.07-1.69,2.05-2.11c0.49-0.21,1.05-0.32,1.66-0.32c0.61,0,1.16,0.11,1.65,0.32
	c1.59,0.69,2.34,2.24,2.27,3.91c0,0.12-0.02,0.21-0.04,0.29h-5.82c0.03,0.3,0.1,0.56,0.22,0.79c0.12,0.23,0.26,0.43,0.45,0.59
	c0.18,0.16,0.39,0.29,0.62,0.37c0.23,0.09,0.47,0.13,0.72,0.13c0.38,0,0.75-0.09,1.09-0.28c0.34-0.19,0.57-0.43,0.7-0.74l1.65,0.46
	c-0.28,0.58-0.72,1.05-1.33,1.42C22.15,20.28,21.43,20.47,20.58,20.47z M22.54,15.92c-0.05-0.57-0.26-1.02-0.63-1.36
	c-0.37-0.34-0.82-0.51-1.34-0.51c-0.26,0-0.5,0.05-0.73,0.14c-0.23,0.09-0.42,0.22-0.6,0.38c-0.17,0.16-0.31,0.36-0.42,0.59
	c-0.11,0.23-0.17,0.48-0.19,0.76L22.54,15.92L22.54,15.92z"/>
<path class="st1" d="M18.05,10.43h5.04v1.25h-5.04V10.43z"/>
</svg>
