<?xml version="1.0" encoding="utf-8"?>
<!-- Generator: Adobe Illustrator 25.2.1, SVG Export Plug-In . SVG Version: 6.00 Build 0)  -->
<svg version="1.1" id="Layer_1" xmlns="http://www.w3.org/2000/svg" xmlns:xlink="http://www.w3.org/1999/xlink" x="0px" y="0px"
	 viewBox="0 0 30 31" style="enable-background:new 0 0 30 31;" xml:space="preserve">
<style type="text/css">
	.st0{fill:url(#SVGID_1_);}
	.st1{fill:#FFFFFF;}
</style>
<g>
	<linearGradient id="SVGID_1_" gradientUnits="userSpaceOnUse" x1="4.6612" y1="5.1529" x2="25.3388" y2="25.8306">
		<stop  offset="0" style="stop-color:#1677F1"/>
		<stop  offset="0.1756" style="stop-color:#186EE9"/>
		<stop  offset="0.4613" style="stop-color:#1E56D3"/>
		<stop  offset="0.8194" style="stop-color:#262EB0"/>
		<stop  offset="1" style="stop-color:#2B189C"/>
	</linearGradient>
	<path class="st0" d="M29.62,15.49c0-8.08-6.55-14.62-14.62-14.62S0.38,7.42,0.38,15.49c0,7.3,5.35,13.35,12.34,14.44V19.72H9v-4.23
		h3.71v-3.22c0-3.66,2.18-5.69,5.52-5.69c1.6,0,3.27,0.29,3.27,0.29v3.6h-1.84c-1.82,0-2.38,1.13-2.38,2.28v2.74h4.06l-0.65,4.23
		h-3.41v10.22C24.27,28.84,29.62,22.79,29.62,15.49z"/>
	<path class="st1" d="M20.69,19.72l0.65-4.23h-4.06v-2.74c0-1.16,0.57-2.28,2.38-2.28h1.84v-3.6c0,0-1.67-0.29-3.27-0.29
		c-3.34,0-5.52,2.02-5.52,5.69v3.22H9v4.23h3.71v10.22c0.74,0.12,1.51,0.18,2.28,0.18s1.54-0.06,2.28-0.18V19.72H20.69z"/>
</g>
</svg>
