<?xml version="1.0" encoding="utf-8"?>
<!-- Generator: Adobe Illustrator 25.2.1, SVG Export Plug-In . SVG Version: 6.00 Build 0)  -->
<svg version="1.1" id="Layer_1" xmlns="http://www.w3.org/2000/svg" xmlns:xlink="http://www.w3.org/1999/xlink" x="0px" y="0px"
	 viewBox="0 0 30 31" style="enable-background:new 0 0 30 31;" xml:space="preserve">
<style type="text/css">
	.st0{fill:url(#SVGID_1_);}
	.st1{fill:#FFFFFF;}
</style>
<linearGradient id="SVGID_1_" gradientUnits="userSpaceOnUse" x1="25.6722" y1="4.6611" x2="4.9944" y2="25.3389">
	<stop  offset="1.104800e-03" style="stop-color:#FFE185"/>
	<stop  offset="0.2094" style="stop-color:#FFBB36"/>
	<stop  offset="0.3765" style="stop-color:#FF5176"/>
	<stop  offset="0.5238" style="stop-color:#F63395"/>
	<stop  offset="0.7394" style="stop-color:#A436D2"/>
	<stop  offset="1" style="stop-color:#5F4EED"/>
</linearGradient>
<circle class="st0" cx="15.33" cy="15" r="14.62"/>
<g>
	<g>
		<path class="st1" d="M18.87,9.47c-0.55,0-1,0.45-1,1c0,0.56,0.45,1.01,1,1.01c0.56,0,1.01-0.45,1.01-1.01
			C19.88,9.92,19.43,9.47,18.87,9.47z"/>
		<path class="st1" d="M14.4,10.76c-2.33,0-4.22,1.89-4.22,4.22c0,2.33,1.89,4.22,4.22,4.22c2.33,0,4.22-1.89,4.22-4.22
			C18.63,12.65,16.73,10.76,14.4,10.76z M14.4,17.68c-1.49,0-2.7-1.21-2.7-2.7s1.21-2.7,2.7-2.7c1.49,0,2.7,1.21,2.7,2.7
			S15.89,17.68,14.4,17.68z"/>
		<path class="st1" d="M17.76,23.55h-6.84c-2.84,0-5.15-2.31-5.15-5.15v-6.84c0-2.84,2.31-5.15,5.15-5.15h6.84
			c2.84,0,5.15,2.31,5.15,5.15v6.84C22.91,21.24,20.59,23.55,17.76,23.55z M10.91,8.02c-1.95,0-3.54,1.59-3.54,3.54v6.84
			c0,1.95,1.59,3.54,3.54,3.54h6.84c1.95,0,3.54-1.59,3.54-3.54v-6.84c0-1.95-1.59-3.54-3.54-3.54H10.91z"/>
	</g>
</g>
</svg>
