<?xml version="1.0" encoding="utf-8"?>
<!-- Generator: Adobe Illustrator 25.2.1, SVG Export Plug-In . SVG Version: 6.00 Build 0)  -->
<svg version="1.1" id="Layer_1" xmlns="http://www.w3.org/2000/svg" xmlns:xlink="http://www.w3.org/1999/xlink" x="0px" y="0px"
	 viewBox="0 0 30 31" style="enable-background:new 0 0 30 31;" xml:space="preserve">
<style type="text/css">
	.st0{fill:#FFFFFF;}
	.st1{fill:url(#SVGID_1_);}
</style>
<path class="st0" d="M18.05,10.43h5.04v1.25h-5.04V10.43z"/>
<linearGradient id="SVGID_1_" gradientUnits="userSpaceOnUse" x1="25.7139" y1="4.7861" x2="5.0361" y2="25.4639">
	<stop  offset="0" style="stop-color:#FF0000"/>
	<stop  offset="1" style="stop-color:#9B0000"/>
</linearGradient>
<circle class="st1" cx="15.38" cy="15.12" r="14.62"/>
<path class="st0" d="M23.2,13c0-1.94-1.57-3.51-3.51-3.51h-8.98C8.77,9.49,7.2,11.06,7.2,13v4.18c0,1.94,1.57,3.51,3.51,3.51h8.98
	c1.94,0,3.51-1.57,3.51-3.51V13z M17.92,15.4l-4.03,1.99c-0.16,0.09-0.69-0.03-0.69-0.21V13.1c0-0.18,0.54-0.3,0.7-0.21l3.85,2.1
	C17.92,15.08,18.09,15.31,17.92,15.4z"/>
</svg>
